<mxfile host="app.diagrams.net" agent="Mozilla/5.0 (Macintosh; Intel Mac OS X 10_15_7) AppleWebKit/537.36 (KHTML, like Gecko) Chrome/136.0.0.0 Safari/537.36" version="26.2.14">
  <diagram name="第 1 页" id="KTVbVEx5oyIUUTG2o0L0">
    <mxGraphModel dx="1042" dy="792" grid="1" gridSize="10" guides="1" tooltips="1" connect="1" arrows="1" fold="1" page="1" pageScale="1" pageWidth="827" pageHeight="1169" math="0" shadow="0">
      <root>
        <mxCell id="0" />
        <mxCell id="1" parent="0" />
        <mxCell id="iHQKDLNlxbht_ljMHfjU-19" value="" style="rounded=1;whiteSpace=wrap;html=1;" vertex="1" parent="1">
          <mxGeometry x="460" y="170" width="380" height="290" as="geometry" />
        </mxCell>
        <mxCell id="iHQKDLNlxbht_ljMHfjU-10" value="" style="rounded=1;whiteSpace=wrap;html=1;" vertex="1" parent="1">
          <mxGeometry x="30" y="190" width="400" height="250" as="geometry" />
        </mxCell>
        <mxCell id="iHQKDLNlxbht_ljMHfjU-3" value="" style="edgeStyle=orthogonalEdgeStyle;rounded=0;orthogonalLoop=1;jettySize=auto;html=1;" edge="1" parent="1" source="iHQKDLNlxbht_ljMHfjU-1" target="iHQKDLNlxbht_ljMHfjU-2">
          <mxGeometry relative="1" as="geometry" />
        </mxCell>
        <mxCell id="iHQKDLNlxbht_ljMHfjU-4" value="trace/metrics" style="edgeLabel;html=1;align=center;verticalAlign=middle;resizable=0;points=[];" vertex="1" connectable="0" parent="iHQKDLNlxbht_ljMHfjU-3">
          <mxGeometry x="-0.175" relative="1" as="geometry">
            <mxPoint as="offset" />
          </mxGeometry>
        </mxCell>
        <mxCell id="iHQKDLNlxbht_ljMHfjU-1" value="service" style="rounded=1;whiteSpace=wrap;html=1;" vertex="1" parent="1">
          <mxGeometry x="60" y="280" width="120" height="60" as="geometry" />
        </mxCell>
        <mxCell id="iHQKDLNlxbht_ljMHfjU-7" value="" style="edgeStyle=orthogonalEdgeStyle;rounded=0;orthogonalLoop=1;jettySize=auto;html=1;" edge="1" parent="1" source="iHQKDLNlxbht_ljMHfjU-2" target="iHQKDLNlxbht_ljMHfjU-5">
          <mxGeometry relative="1" as="geometry" />
        </mxCell>
        <mxCell id="iHQKDLNlxbht_ljMHfjU-9" value="otlp" style="edgeLabel;html=1;align=center;verticalAlign=middle;resizable=0;points=[];" vertex="1" connectable="0" parent="iHQKDLNlxbht_ljMHfjU-7">
          <mxGeometry x="-0.3488" y="1" relative="1" as="geometry">
            <mxPoint as="offset" />
          </mxGeometry>
        </mxCell>
        <mxCell id="iHQKDLNlxbht_ljMHfjU-2" value="otel-collector-agent" style="rounded=1;whiteSpace=wrap;html=1;" vertex="1" parent="1">
          <mxGeometry x="274" y="280" width="120" height="60" as="geometry" />
        </mxCell>
        <mxCell id="iHQKDLNlxbht_ljMHfjU-14" style="edgeStyle=orthogonalEdgeStyle;rounded=0;orthogonalLoop=1;jettySize=auto;html=1;entryX=0;entryY=0.5;entryDx=0;entryDy=0;" edge="1" parent="1" source="iHQKDLNlxbht_ljMHfjU-5" target="iHQKDLNlxbht_ljMHfjU-12">
          <mxGeometry relative="1" as="geometry" />
        </mxCell>
        <mxCell id="iHQKDLNlxbht_ljMHfjU-15" value="metrics" style="edgeLabel;html=1;align=center;verticalAlign=middle;resizable=0;points=[];" vertex="1" connectable="0" parent="iHQKDLNlxbht_ljMHfjU-14">
          <mxGeometry x="0.0143" y="-1" relative="1" as="geometry">
            <mxPoint as="offset" />
          </mxGeometry>
        </mxCell>
        <mxCell id="iHQKDLNlxbht_ljMHfjU-16" style="edgeStyle=orthogonalEdgeStyle;rounded=0;orthogonalLoop=1;jettySize=auto;html=1;entryX=0;entryY=0.5;entryDx=0;entryDy=0;" edge="1" parent="1" source="iHQKDLNlxbht_ljMHfjU-5" target="iHQKDLNlxbht_ljMHfjU-13">
          <mxGeometry relative="1" as="geometry" />
        </mxCell>
        <mxCell id="iHQKDLNlxbht_ljMHfjU-17" value="trace" style="edgeLabel;html=1;align=center;verticalAlign=middle;resizable=0;points=[];" vertex="1" connectable="0" parent="iHQKDLNlxbht_ljMHfjU-16">
          <mxGeometry x="-0.1" y="-3" relative="1" as="geometry">
            <mxPoint as="offset" />
          </mxGeometry>
        </mxCell>
        <mxCell id="iHQKDLNlxbht_ljMHfjU-5" value="otel-collector-gateway" style="rounded=1;whiteSpace=wrap;html=1;" vertex="1" parent="1">
          <mxGeometry x="480" y="280" width="140" height="60" as="geometry" />
        </mxCell>
        <mxCell id="iHQKDLNlxbht_ljMHfjU-6" value="sampling+span metrics" style="text;html=1;align=center;verticalAlign=middle;whiteSpace=wrap;rounded=0;" vertex="1" parent="1">
          <mxGeometry x="274" y="250" width="140" height="30" as="geometry" />
        </mxCell>
        <mxCell id="iHQKDLNlxbht_ljMHfjU-11" value="edge cluster" style="text;html=1;align=center;verticalAlign=middle;whiteSpace=wrap;rounded=0;" vertex="1" parent="1">
          <mxGeometry x="50" y="200" width="90" height="30" as="geometry" />
        </mxCell>
        <mxCell id="iHQKDLNlxbht_ljMHfjU-12" value="victoria metrics(TSDB)" style="rounded=1;whiteSpace=wrap;html=1;" vertex="1" parent="1">
          <mxGeometry x="680" y="200" width="120" height="60" as="geometry" />
        </mxCell>
        <mxCell id="iHQKDLNlxbht_ljMHfjU-13" value="tempo(trace storage)" style="rounded=1;whiteSpace=wrap;html=1;" vertex="1" parent="1">
          <mxGeometry x="680" y="350" width="120" height="60" as="geometry" />
        </mxCell>
        <mxCell id="iHQKDLNlxbht_ljMHfjU-20" value="center cluster" style="text;html=1;align=center;verticalAlign=middle;whiteSpace=wrap;rounded=0;" vertex="1" parent="1">
          <mxGeometry x="480" y="180" width="100" height="30" as="geometry" />
        </mxCell>
      </root>
    </mxGraphModel>
  </diagram>
</mxfile>
